<svg width="276" height="276" xmlns="http://www.w3.org/2000/svg" xmlns:xlink="http://www.w3.org/1999/xlink" xml:space="preserve" overflow="hidden"><defs><clipPath id="clip0"><rect x="101" y="376" width="276" height="276"/></clipPath><clipPath id="clip1"><rect x="102" y="377" width="275" height="275"/></clipPath><clipPath id="clip2"><rect x="102" y="377" width="275" height="275"/></clipPath><clipPath id="clip3"><rect x="102" y="377" width="275" height="275"/></clipPath></defs><g clip-path="url(#clip0)" transform="translate(-101 -376)"><g clip-path="url(#clip1)"><g clip-path="url(#clip2)"><g clip-path="url(#clip3)"><path d="M239.5 422.833C188.797 422.833 147.833 463.797 147.833 514.5 147.833 565.203 188.797 606.167 239.5 606.167 290.203 606.167 331.167 565.203 331.167 514.5 331.167 463.797 290.203 422.833 239.5 422.833ZM239.5 623.354C179.344 623.354 130.646 574.656 130.646 514.5 130.646 454.344 179.344 405.646 239.5 405.646 299.656 405.646 348.354 454.344 348.354 514.5 348.354 574.656 299.656 623.354 239.5 623.354Z" fill="#000000" fill-rule="nonzero" fill-opacity="1"/><path d="M296.792 491.583 262.417 491.583 262.417 457.208C262.417 450.906 257.26 445.75 250.958 445.75L228.042 445.75C221.74 445.75 216.583 450.906 216.583 457.208L216.583 491.583 182.208 491.583C175.906 491.583 170.75 496.74 170.75 503.042L170.75 525.958C170.75 532.26 175.906 537.417 182.208 537.417L216.583 537.417 216.583 571.792C216.583 578.094 221.74 583.25 228.042 583.25L250.958 583.25C257.26 583.25 262.417 578.094 262.417 571.792L262.417 537.417 296.792 537.417C303.094 537.417 308.25 532.26 308.25 525.958L308.25 503.042C308.25 496.74 303.094 491.583 296.792 491.583Z" fill="#000000" fill-rule="nonzero" fill-opacity="1"/></g></g></g></g></svg>