<svg width="269" height="270" xmlns="http://www.w3.org/2000/svg" xmlns:xlink="http://www.w3.org/1999/xlink" xml:space="preserve" overflow="hidden"><defs><clipPath id="clip0"><rect x="957" y="224" width="269" height="270"/></clipPath><clipPath id="clip1"><rect x="958" y="225" width="268" height="269"/></clipPath><clipPath id="clip2"><rect x="958" y="225" width="268" height="269"/></clipPath><clipPath id="clip3"><rect x="958" y="225" width="268" height="269"/></clipPath></defs><g clip-path="url(#clip0)" transform="translate(-957 -224)"><g clip-path="url(#clip1)"><g clip-path="url(#clip2)"><g clip-path="url(#clip3)"><path d="M219.277 63.77C189.667 61.4077 162.058 47.8952 142.026 25.9625 138.25 21.5861 131.641 21.0994 127.265 24.8753 126.876 25.2106 126.513 25.574 126.178 25.9625 106.146 47.8952 78.5366 61.4077 48.9268 63.77 43.4252 64.2843 39.2318 68.9226 39.2732 74.4482L39.2732 101.396C39.2732 159.982 76.5335 213.574 128.269 246.736 131.822 249.019 136.382 249.019 139.935 246.736 191.67 213.562 228.931 159.982 228.931 101.396L228.931 74.4482C228.972 68.9226 224.779 64.2843 219.277 63.77ZM210.785 101.396C210.785 148.017 183.01 195.051 136.485 227.236L134.1 228.886 131.719 227.236C85.1933 195.048 57.4162 148.006 57.4162 101.396L57.4162 81.1538 60.9449 80.5954C87.2337 76.4361 111.702 64.5852 131.264 46.5371L134.1 43.9213 136.94 46.5371C156.5 64.5855 180.968 76.4367 207.256 80.5954L210.785 81.1538Z" fill="#000000" fill-rule="nonzero" fill-opacity="1" transform="matrix(1 0 0 1.00373 958 225)"/><path d="M134.1 55.2443C114.717 72.1956 91.1172 83.5998 65.7912 88.253L65.7912 101.396C65.7912 144.463 91.2708 188.116 134.1 218.677 176.93 188.119 202.41 144.466 202.41 101.396L202.41 88.253C177.084 83.5998 153.484 72.1956 134.1 55.2443ZM164.728 156.613 155.136 166.205 133.919 144.988 112.702 166.205 103.127 156.613 124.344 135.396 103.127 114.179 112.719 104.587 133.936 125.804 155.152 104.587 164.728 114.179 143.511 135.396Z" fill="#000000" fill-rule="nonzero" fill-opacity="1" transform="matrix(1 0 0 1.00373 958 225)"/></g></g></g></g></svg>