<svg width="276" height="276" xmlns="http://www.w3.org/2000/svg" xmlns:xlink="http://www.w3.org/1999/xlink" xml:space="preserve" overflow="hidden"><defs><clipPath id="clip0"><rect x="101" y="68" width="276" height="276"/></clipPath><clipPath id="clip1"><rect x="102" y="68" width="275" height="275"/></clipPath><clipPath id="clip2"><rect x="102" y="68" width="275" height="275"/></clipPath><clipPath id="clip3"><rect x="102" y="68" width="275" height="275"/></clipPath></defs><g clip-path="url(#clip0)" transform="translate(-101 -68)"><g clip-path="url(#clip1)"><g clip-path="url(#clip2)"><g clip-path="url(#clip3)"><path d="M252.774 171.509 242.187 177.622 242.187 165.396 236.458 165.396 236.458 177.622 225.87 171.509 223.006 176.47 233.59 182.583 223.006 188.696 225.87 193.658 236.458 187.545 236.458 199.771 242.187 199.771 242.187 187.545 252.774 193.658 255.639 188.696 245.052 182.583 255.639 176.47 252.774 171.509Z" fill="#000000" fill-rule="nonzero" fill-opacity="1"/><path d="M268.146 262.795 279.604 262.795 279.604 274.25 268.146 274.25Z" fill="#000000" fill-rule="nonzero" fill-opacity="1"/><path d="M268.146 242.74 279.604 242.74 279.604 254.195 268.146 254.195Z" fill="#000000" fill-rule="nonzero" fill-opacity="1"/><path d="M293.927 262.792 305.385 262.792 305.385 274.247 293.927 274.247Z" fill="#000000" fill-rule="nonzero" fill-opacity="1"/><path d="M293.927 242.742 305.385 242.742 305.385 254.198 293.927 254.198Z" fill="#000000" fill-rule="nonzero" fill-opacity="1"/><path d="M268.146 222.688 279.604 222.688 279.604 234.143 268.146 234.143Z" fill="#000000" fill-rule="nonzero" fill-opacity="1"/><path d="M293.927 222.688 305.385 222.688 305.385 234.143 293.927 234.143Z" fill="#000000" fill-rule="nonzero" fill-opacity="1"/><path d="M319.708 262.792 331.167 262.792 331.167 274.247 319.708 274.247Z" fill="#000000" fill-rule="nonzero" fill-opacity="1"/><path d="M319.708 242.742 331.167 242.742 331.167 254.198 319.708 254.198Z" fill="#000000" fill-rule="nonzero" fill-opacity="1"/><path d="M319.708 222.688 331.167 222.688 331.167 234.143 319.708 234.143Z" fill="#000000" fill-rule="nonzero" fill-opacity="1"/><path d="M268.146 202.638 279.604 202.638 279.604 214.094 268.146 214.094Z" fill="#000000" fill-rule="nonzero" fill-opacity="1"/><path d="M293.927 202.635 305.385 202.635 305.385 214.091 293.927 214.091Z" fill="#000000" fill-rule="nonzero" fill-opacity="1"/><path d="M319.708 202.635 331.167 202.635 331.167 214.091 319.708 214.091Z" fill="#000000" fill-rule="nonzero" fill-opacity="1"/><path d="M147.833 262.795 159.292 262.795 159.292 274.25 147.833 274.25Z" fill="#000000" fill-rule="nonzero" fill-opacity="1"/><path d="M147.833 242.74 159.292 242.74 159.292 254.195 147.833 254.195Z" fill="#000000" fill-rule="nonzero" fill-opacity="1"/><path d="M173.615 262.792 185.073 262.792 185.073 274.247 173.615 274.247Z" fill="#000000" fill-rule="nonzero" fill-opacity="1"/><path d="M173.615 242.742 185.073 242.742 185.073 254.198 173.615 254.198Z" fill="#000000" fill-rule="nonzero" fill-opacity="1"/><path d="M147.833 222.688 159.292 222.688 159.292 234.143 147.833 234.143Z" fill="#000000" fill-rule="nonzero" fill-opacity="1"/><path d="M173.615 222.688 185.073 222.688 185.073 234.143 173.615 234.143Z" fill="#000000" fill-rule="nonzero" fill-opacity="1"/><path d="M199.396 262.792 210.854 262.792 210.854 274.247 199.396 274.247Z" fill="#000000" fill-rule="nonzero" fill-opacity="1"/><path d="M199.396 242.742 210.854 242.742 210.854 254.198 199.396 254.198Z" fill="#000000" fill-rule="nonzero" fill-opacity="1"/><path d="M199.396 222.688 210.854 222.688 210.854 234.143 199.396 234.143Z" fill="#000000" fill-rule="nonzero" fill-opacity="1"/><path d="M147.833 202.638 159.292 202.638 159.292 214.094 147.833 214.094Z" fill="#000000" fill-rule="nonzero" fill-opacity="1"/><path d="M173.615 202.635 185.073 202.635 185.073 214.091 173.615 214.091Z" fill="#000000" fill-rule="nonzero" fill-opacity="1"/><path d="M199.396 202.635 210.854 202.635 210.854 214.091 199.396 214.091Z" fill="#000000" fill-rule="nonzero" fill-opacity="1"/><path d="M351.219 179.719 276.74 179.719 276.74 169.211 277.931 170.406 292.856 155.33 239.5 104.14 184.981 156.203 200.181 171.305 202.26 169.223 202.26 179.719 122.052 179.719 122.052 185.448 127.781 185.448 127.781 297.167 351.219 297.167 351.219 185.448 356.948 185.448 356.948 179.719ZM200.166 163.213 193.191 156.284 239.5 112.069 284.695 155.436 277.92 162.282 276.74 161.099 239.5 123.859 202.26 161.099 202.26 161.125ZM230.906 291.438 230.906 257.062 248.094 257.062 248.094 291.438ZM345.49 291.438 253.823 291.438 253.823 251.333 225.177 251.333 225.177 291.438 133.51 291.438 133.51 185.448 207.99 185.448 207.99 163.491 211.831 159.649 239.5 131.943 264.651 157.1 271.01 163.485 271.01 185.448 345.49 185.448Z" fill="#000000" fill-rule="nonzero" fill-opacity="1"/></g></g></g></g></svg>