<svg width="276" height="276" xmlns="http://www.w3.org/2000/svg" xmlns:xlink="http://www.w3.org/1999/xlink" xml:space="preserve" overflow="hidden"><defs><clipPath id="clip0"><rect x="904" y="68" width="276" height="276"/></clipPath><clipPath id="clip1"><rect x="905" y="68" width="275" height="275"/></clipPath><clipPath id="clip2"><rect x="905" y="68" width="275" height="275"/></clipPath><clipPath id="clip3"><rect x="905" y="68" width="275" height="275"/></clipPath></defs><g clip-path="url(#clip0)" transform="translate(-904 -68)"><g clip-path="url(#clip1)"><g clip-path="url(#clip2)"><g clip-path="url(#clip3)"><path d="M1145.62 139.615 1088.33 139.615 1088.33 119.562C1088.33 108.488 1079.36 99.5104 1068.28 99.5104L1016.72 99.5104C1005.64 99.5104 996.667 108.488 996.667 119.562L996.667 139.615 939.375 139.615C933.047 139.615 927.917 144.745 927.917 151.073L927.917 288.573C927.917 294.901 933.047 300.031 939.375 300.031L1145.62 300.031C1151.95 300.031 1157.08 294.901 1157.08 288.573L1157.08 151.073C1157.08 144.745 1151.95 139.615 1145.62 139.615ZM1013.85 119.562C1013.76 118.079 1014.88 116.796 1016.36 116.698 1016.48 116.69 1016.6 116.69 1016.72 116.698L1068.28 116.698C1069.77 116.6 1071.05 117.723 1071.15 119.207 1071.15 119.325 1071.15 119.444 1071.15 119.562L1071.15 139.615 1013.85 139.615ZM1085.47 231.281 1074.01 251.333 1053.96 239.875 1053.96 262.792 1031.04 262.792 1031.04 239.674 1010.99 251.133 999.531 231.281 1019.58 219.823 999.531 208.365 1010.99 188.312 1031.04 199.771 1031.04 176.854 1053.96 176.854 1053.96 199.971 1074.01 188.513 1085.47 208.365 1065.42 219.823Z" fill="#000000" fill-rule="nonzero" fill-opacity="1"/></g></g></g></g></svg>