<svg width="279" height="278" xmlns="http://www.w3.org/2000/svg" xmlns:xlink="http://www.w3.org/1999/xlink" xml:space="preserve" overflow="hidden"><defs><clipPath id="clip0"><rect x="502" y="376" width="279" height="278"/></clipPath><clipPath id="clip1"><rect x="503" y="377" width="278" height="277"/></clipPath><clipPath id="clip2"><rect x="503" y="377" width="278" height="277"/></clipPath><clipPath id="clip3"><rect x="503" y="377" width="278" height="277"/></clipPath></defs><g clip-path="url(#clip0)" transform="translate(-502 -376)"><g clip-path="url(#clip1)"><g clip-path="url(#clip2)"><g clip-path="url(#clip3)"><path d="M173.125 109.646 173.125 100.99 138.5 66.3646 103.875 100.99 103.875 109.646 20.1979 109.646 20.1979 121.188 25.9688 121.188 25.9688 230.833 251.031 230.833 251.031 121.188 256.802 121.188 256.802 109.646ZM54.8229 207.75 37.5104 207.75 37.5104 190.438 54.8229 190.438ZM54.8229 178.896 37.5104 178.896 37.5104 161.583 54.8229 161.583ZM54.8229 150.042 37.5104 150.042 37.5104 132.729 54.8229 132.729ZM83.6771 207.75 66.3646 207.75 66.3646 190.438 83.6771 190.438ZM83.6771 178.896 66.3646 178.896 66.3646 161.583 83.6771 161.583ZM83.6771 150.042 66.3646 150.042 66.3646 132.729 83.6771 132.729ZM112.531 207.75 95.2188 207.75 95.2188 190.438 112.531 190.438ZM112.531 178.896 95.2188 178.896 95.2188 161.583 112.531 161.583ZM112.531 150.042 95.2188 150.042 95.2188 132.729 112.531 132.729ZM126.958 219.292 126.958 178.896 150.042 178.896 150.042 219.292ZM158.698 120.841 153.302 130.19 143.896 124.737 143.896 135.615 133.104 135.615 133.104 124.737 123.698 130.19 118.302 120.841 127.737 115.417 118.302 109.992 123.698 100.643 133.104 106.097 133.104 95.2188 143.896 95.2188 143.896 106.097 153.302 100.643 158.698 109.992 149.263 115.417ZM181.781 207.75 164.469 207.75 164.469 190.438 181.781 190.438ZM181.781 178.896 164.469 178.896 164.469 161.583 181.781 161.583ZM181.781 150.042 164.469 150.042 164.469 132.729 181.781 132.729ZM210.635 207.75 193.323 207.75 193.323 190.438 210.635 190.438ZM210.635 178.896 193.323 178.896 193.323 161.583 210.635 161.583ZM210.635 150.042 193.323 150.042 193.323 132.729 210.635 132.729ZM239.49 207.75 222.177 207.75 222.177 190.438 239.49 190.438ZM239.49 178.896 222.177 178.896 222.177 161.583 239.49 161.583ZM239.49 150.042 222.177 150.042 222.177 132.729 239.49 132.729Z" fill="#000000" fill-rule="nonzero" fill-opacity="1" transform="matrix(1.00361 0 0 1 503 377)"/><path d="M138.5 51.447 180.598 93.5164 188.735 85.3795 138.5 35.1155 88.2649 85.3795 96.4018 93.5164 138.5 51.447Z" fill="#000000" fill-rule="nonzero" fill-opacity="1" transform="matrix(1.00361 0 0 1 503 377)"/></g></g></g></g></svg>