<svg width="270" height="270" xmlns="http://www.w3.org/2000/svg" xmlns:xlink="http://www.w3.org/1999/xlink" xml:space="preserve" overflow="hidden"><defs><clipPath id="clip0"><rect x="50" y="224" width="270" height="270"/></clipPath><clipPath id="clip1"><rect x="51" y="225" width="269" height="269"/></clipPath><clipPath id="clip2"><rect x="51" y="225" width="269" height="269"/></clipPath><clipPath id="clip3"><rect x="51" y="225" width="269" height="269"/></clipPath></defs><g clip-path="url(#clip0)" transform="translate(-50 -224)"><g clip-path="url(#clip1)"><g clip-path="url(#clip2)"><g clip-path="url(#clip3)"><path d="M174.292 348.572C168.407 354.456 163.924 360.901 161.122 367.066 140.386 342.407 127.217 320.551 126.936 309.062 128.057 307.661 129.458 306.26 130.859 304.859 132.26 303.458 133.661 302.337 135.062 300.936 146.271 301.497 168.127 314.386 193.066 335.402 186.621 338.204 180.176 342.688 174.292 348.572ZM129.458 398.729C123.014 401.531 116.849 406.015 110.965 411.899 110.684 412.179 110.684 412.179 110.404 412.459 96.9542 384.439 99.1958 350.253 116.569 322.512 109.003 344.369 114.047 372.39 129.458 398.729ZM238.459 284.404C238.179 284.684 238.179 284.684 237.899 284.965 232.015 290.849 227.531 297.294 224.729 303.458 198.39 288.047 170.089 283.003 148.512 290.569 176.253 273.196 210.439 270.954 238.459 284.404ZM278.249 440.48 194.186 356.418C193.626 355.857 193.066 355.577 192.505 355.017 197.549 351.374 202.593 349.132 206.235 348.852 206.516 343.248 210.999 335.682 217.724 328.677 224.729 321.672 232.295 317.469 237.899 317.189 238.179 311.584 242.663 304.019 249.387 297.014 256.112 290.289 263.958 286.085 269.282 285.525 230.053 249.939 169.248 250.499 126.656 285.525 122.453 282.723 116.569 283.283 112.646 286.926 109.003 290.569 108.443 296.453 111.245 300.936 76.2188 343.528 75.6583 404.333 111.245 443.843 111.805 438.239 116.008 430.673 122.733 423.948 129.739 416.943 137.304 412.74 142.908 412.459 143.189 406.855 147.672 399.29 154.397 392.284 161.402 385.279 168.968 381.076 174.572 380.796 174.852 376.873 177.094 371.829 181.017 366.505 181.297 367.066 181.857 367.626 182.418 368.186L266.48 452.249C268.161 453.93 270.403 454.771 272.365 454.771 274.326 454.771 276.568 453.93 278.249 452.249 281.611 449.167 281.611 443.562 278.249 440.48Z" fill="#000000" fill-rule="nonzero" fill-opacity="1"/></g></g></g></g></svg>