<svg width="276" height="276" xmlns="http://www.w3.org/2000/svg" xmlns:xlink="http://www.w3.org/1999/xlink" xml:space="preserve" overflow="hidden"><defs><clipPath id="clip0"><rect x="504" y="68" width="276" height="276"/></clipPath><clipPath id="clip1"><rect x="504" y="68" width="276" height="275"/></clipPath><clipPath id="clip2"><rect x="504" y="68" width="276" height="275"/></clipPath><clipPath id="clip3"><rect x="504" y="68" width="276" height="275"/></clipPath></defs><g clip-path="url(#clip0)" transform="translate(-504 -68)"><g clip-path="url(#clip1)"><g clip-path="url(#clip2)"><g clip-path="url(#clip3)"><path d="M137.5 34.375C194.454 34.375 240.625 80.5455 240.625 137.5 240.625 194.454 194.454 240.625 137.5 240.625 80.5455 240.625 34.375 194.454 34.375 137.5 34.4397 80.5724 80.5724 34.4397 137.5 34.375M137.5 28.6458C77.3816 28.6458 28.6458 77.3816 28.6458 137.5 28.6458 197.618 77.3816 246.354 137.5 246.354 197.618 246.354 246.354 197.618 246.354 137.5 246.381 77.4085 197.689 28.6728 137.597 28.6458 137.565 28.6458 137.532 28.6458 137.5 28.6458Z" fill="#000000" fill-rule="nonzero" fill-opacity="1" transform="matrix(1.00364 0 0 1 504 68)"/><path d="M154.688 74.4792 154.688 120.312 200.521 120.312 200.521 154.688 154.688 154.688 154.688 200.521 120.312 200.521 120.312 154.688 74.4792 154.688 74.4792 120.312 120.312 120.312 120.312 74.4792ZM114.583 68.75 114.583 114.583 68.75 114.583 68.75 160.417 114.583 160.417 114.583 206.25 160.417 206.25 160.417 160.417 206.25 160.417 206.25 114.583 160.417 114.583 160.417 68.75Z" fill="#000000" fill-rule="nonzero" fill-opacity="1" transform="matrix(1.00364 0 0 1 504 68)"/></g></g></g></g></svg>